<svg width="50" height="50" viewBox="0 0 50 50" fill="none" xmlns="http://www.w3.org/2000/svg">
<g clip-path="url(#clip0)">
<path d="M16.7307 34.0021C16.8349 34.2508 16.9553 34.4945 17.0912 34.7322V34.7328C17.2013 34.9262 17.3209 35.1147 17.4502 35.2983H32.5288V35.3237C32.6655 35.132 32.7913 34.9347 32.9061 34.7316C33.0423 34.4943 33.1626 34.2507 33.2665 34.0021H16.7307ZM17.1108 34.7245V34.6066H32.8885V34.7245H17.1108ZM18.2861 36.2896H31.7111C31.9865 36.0143 32.2375 35.7224 32.4622 35.4163H17.5351C17.7597 35.7224 18.0108 36.0143 18.2861 36.2896V36.2896Z" fill="#3F3D56"/>
<path d="M33.5021 33.3405C33.4481 33.525 33.385 33.7061 33.3142 33.8842H16.683C16.6122 33.7061 16.5491 33.525 16.4951 33.3405H33.5021Z" fill="#3F3D56"/>
<path d="M33.5127 33.3057V33.2225H16.4846V33.3057C16.425 33.1004 16.3756 32.8915 16.3366 32.6788H33.6606C33.6221 32.8911 33.5727 33.1 33.5127 33.3057Z" fill="#3F3D56"/>
<path d="M16.3058 31.8992V32.0171H33.7455C33.7321 32.2005 33.7111 32.3816 33.681 32.5608H16.3163C16.2868 32.3828 16.2651 32.2023 16.2525 32.0195C16.2398 31.865 16.2342 31.7093 16.2342 31.5518C16.2342 31.4457 16.237 31.3401 16.2419 31.2352V31.234C16.2539 31.0105 16.2768 30.7899 16.3107 30.5723V30.5717C16.3401 30.3895 16.3768 30.2094 16.4208 30.0315H33.5484V29.9242C33.6059 30.1377 33.6517 30.3547 33.6859 30.5753H16.3415V30.6932H33.7034C33.7265 30.8577 33.7429 31.0236 33.7525 31.1909L33.7546 31.2369H16.324V31.3549H33.7595C33.7623 31.4203 33.763 31.4858 33.763 31.5518C33.763 31.6686 33.7595 31.7842 33.7532 31.8992H16.3058Z" fill="#3F3D56"/>
<path d="M33.5456 29.9136H16.4516C16.5014 29.7296 16.5591 29.5483 16.6248 29.3698H33.3695V29.3634C33.4369 29.5438 33.4951 29.7272 33.5456 29.9136Z" fill="#3F3D56"/>
<path d="M33.3275 29.2519H16.6697C16.7566 29.0278 16.856 28.8089 16.9677 28.595V28.7076H33.0294V28.5956C33.1409 28.8091 33.2403 29.0278 33.3275 29.2519Z" fill="#3F3D56"/>
<path d="M33.026 28.5897H16.9706C17.0673 28.4045 17.1732 28.2233 17.2882 28.046H32.69V28.0165C32.8121 28.2028 32.924 28.3939 33.026 28.5897Z" fill="#3F3D56"/>
<path d="M32.6311 27.928H17.3654C18.129 26.791 19.2381 25.8449 20.5793 25.1867C21.9204 24.5284 23.4454 24.1815 24.9982 24.1815C26.5511 24.1815 28.0761 24.5284 29.4172 25.1867C30.7583 25.8449 31.8674 26.791 32.6311 27.928V27.928Z" fill="#3F3D56"/>
<path opacity="0.5" d="M16.4846 33.3057C16.4873 33.3174 16.4908 33.329 16.4951 33.3405H16.4846V33.3057Z" fill="black"/>
<path opacity="0.5" d="M33.5126 33.3057V33.3405H33.5021C33.5064 33.329 33.5099 33.3174 33.5126 33.3057V33.3057Z" fill="black"/>
<path opacity="0.5" d="M33.763 31.8992V32.0171H33.7455C33.7469 32.0024 33.7483 31.9876 33.749 31.9729C33.7504 31.9481 33.7518 31.9239 33.7532 31.8992H33.763Z" fill="black"/>
<path opacity="0.5" d="M33.763 31.2369V31.3549H33.7595C33.7588 31.3154 33.7567 31.2764 33.7546 31.2369H33.763Z" fill="black"/>
<path opacity="0.5" d="M33.5484 29.9136V29.9242C33.5477 29.9207 33.5463 29.9171 33.5456 29.9136H33.5484Z" fill="black"/>
<path opacity="0.5" d="M16.9677 28.5897H16.9705C16.9699 28.5915 16.969 28.5933 16.9677 28.595V28.5897Z" fill="black"/>
<path opacity="0.5" d="M33.0294 28.5897V28.5956C33.0284 28.5936 33.0272 28.5916 33.0259 28.5897H33.0294Z" fill="black"/>
<path opacity="0.5" d="M32.1353 27.2661H17.8619V27.3841H32.1353V27.2661Z" fill="black"/>
<path opacity="0.5" d="M31.5808 26.6043H18.4521V26.7223H31.5808V26.6043Z" fill="black"/>
<path opacity="0.5" d="M30.7401 25.9425H19.257V26.0605H30.7401V25.9425Z" fill="black"/>
<path opacity="0.5" d="M29.6847 25.2804L20.1333 25.2961L20.1336 25.414L29.685 25.3983L29.6847 25.2804Z" fill="black"/>
<path d="M23.7278 27.6791H19.5424V35.4781H23.7278V27.6791Z" fill="#E6E6E6"/>
<path d="M21.4571 28.4135H21.6343C21.8954 28.4135 22.1458 28.5007 22.3305 28.656C22.5151 28.8112 22.6188 29.0218 22.6188 29.2414V30.4138H20.4725V29.2414C20.4725 29.0218 20.5762 28.8112 20.7609 28.656C20.9455 28.5007 21.1959 28.4135 21.4571 28.4135V28.4135Z" fill="#3F3D56"/>
<path d="M29.1125 27.6109C29.3971 27.6109 29.6701 27.706 29.8713 27.8753C30.0726 28.0445 30.1857 28.2741 30.1857 28.5134V29.9875H28.0393V28.5134C28.0393 28.2741 28.1523 28.0445 28.3536 27.8753C28.5549 27.706 28.8278 27.6109 29.1125 27.6109Z" fill="#E6E6E6"/>
<path d="M33.1906 30.6192C33.1906 30.6896 33.1859 30.7599 33.1766 30.8298H24.9986V30.4387H33.1802C33.187 30.4986 33.1904 30.5587 33.1906 30.6192Z" fill="#E6E6E6"/>
<path d="M26.1722 29.299L26.2517 29.1957C26.2281 29.1409 26.2009 29.0873 26.1701 29.0351L26.1187 29.0701L26.1594 29.0172C26.1206 28.953 26.0901 28.9125 26.0901 28.9125C25.9922 29.0471 25.9204 29.1939 25.8774 29.3475L25.9794 29.4801L25.8665 29.4034C25.8625 29.4294 25.8604 29.4557 25.8603 29.4819C25.8603 29.7469 25.9632 29.9617 26.0901 29.9617C26.217 29.9617 26.3199 29.7469 26.3199 29.4819C26.3175 29.3977 26.2998 29.3142 26.2673 29.2344L26.1722 29.299Z" fill="#6C63FF"/>
<path d="M26.7349 29.5287L26.878 29.5029C26.9074 29.4502 26.9332 29.3961 26.9553 29.3409L26.8896 29.335L26.9629 29.3218C26.9894 29.2533 27.0019 29.2066 27.0019 29.2066C26.8195 29.2435 26.6452 29.3046 26.4857 29.3877L26.4463 29.5421L26.431 29.4207C26.4062 29.4367 26.3827 29.454 26.3605 29.4726C26.1378 29.6599 26.0299 29.873 26.1197 29.9484C26.2094 30.0239 26.4628 29.9332 26.6856 29.7459C26.7547 29.6849 26.8124 29.6153 26.8565 29.5396L26.7349 29.5287Z" fill="#6C63FF"/>
<path d="M26.7871 30.5539C26.4553 30.5717 26.0938 30.5529 25.7092 30.5539V29.8134C26.0667 29.8555 26.4296 29.8555 26.7871 29.8134V30.5539Z" fill="#E6E6E6"/>
<path d="M31.5739 29.299L31.6534 29.1957C31.6298 29.1409 31.6026 29.0873 31.5718 29.0351L31.5204 29.0701L31.5611 29.0172C31.5223 28.953 31.4918 28.9125 31.4918 28.9125C31.3939 29.0471 31.3221 29.1939 31.2791 29.3475L31.3811 29.4801L31.2682 29.4034C31.2642 29.4294 31.2621 29.4557 31.262 29.4819C31.262 29.7469 31.3649 29.9617 31.4918 29.9617C31.6187 29.9617 31.7216 29.7469 31.7216 29.4819C31.7193 29.3977 31.7015 29.3142 31.6691 29.2344L31.5739 29.299Z" fill="#6C63FF"/>
<path d="M32.1366 29.5287L32.2797 29.5029C32.3091 29.4502 32.3349 29.3961 32.357 29.3409L32.2913 29.335L32.3646 29.3218C32.3911 29.2533 32.4036 29.2066 32.4036 29.2066C32.2212 29.2435 32.0469 29.3046 31.8874 29.3877L31.8481 29.5421L31.8327 29.4207C31.8079 29.4367 31.7844 29.454 31.7622 29.4726C31.5395 29.6599 31.4316 29.873 31.5214 29.9484C31.6111 30.0239 31.8645 29.9332 32.0873 29.7459C32.1565 29.6849 32.2141 29.6153 32.2582 29.5396L32.1366 29.5287Z" fill="#6C63FF"/>
<path d="M32.1889 30.5539C31.8571 30.5717 31.4955 30.5529 31.1109 30.5539V29.8134C31.4685 29.8555 31.8313 29.8555 32.1889 29.8134V30.5539Z" fill="#E6E6E6"/>
<path d="M20.0432 32.1103C20.2803 32.1103 20.4725 31.9743 20.4725 31.8065C20.4725 31.6387 20.2803 31.5026 20.0432 31.5026C19.8061 31.5026 19.6139 31.6387 19.6139 31.8065C19.6139 31.9743 19.8061 32.1103 20.0432 32.1103Z" fill="#3F3D56"/>
<path d="M45.35 40.936C40.8612 46.3273 33.4201 49.8526 25 49.8526C16.479 49.8526 8.96072 46.2423 4.49017 40.7414C8.34011 34.5877 16.1571 36.1121 25 36.1121C33.9355 36.1121 41.5407 34.6768 45.35 40.936Z" fill="#6C63FF"/>
<path d="M25 37.5864C33.4998 37.5864 40.7956 36.2882 44.7657 41.5491C44.9654 41.3284 45.1602 41.1044 45.3499 40.8771C41.5407 34.6178 33.9355 36.0532 25 36.0532C16.1571 36.0532 8.3401 34.5287 4.49017 40.6825C4.6805 40.9167 4.87643 41.1473 5.07799 41.3743C9.1007 36.2067 16.5858 37.5864 25 37.5864Z" fill="#3F3D56"/>
<path d="M25 50C18.9054 49.9961 13.0231 48.1177 8.46149 44.7188C3.8999 41.32 0.974108 36.6355 0.235512 31.5481C-0.503085 26.4608 0.996524 21.3219 4.45172 17.1C7.90692 12.8781 13.0791 9.86473 18.9935 8.6278C24.9078 7.39088 31.156 8.01583 36.5603 10.3849C41.9647 12.7539 46.1521 16.7034 48.3333 21.4891C50.5145 26.2747 50.5389 31.566 48.4019 36.3658C46.2649 41.1655 42.1141 45.1422 36.7317 47.5465C33.1186 49.1588 29.0903 50.0013 25 50V50ZM25 8.12992C21.2353 8.13135 17.5205 8.85381 14.1374 10.2425C10.7543 11.6312 7.79168 13.6496 5.4744 16.1446C3.15711 18.6396 1.546 21.5457 0.763297 24.6423C-0.0194051 27.739 0.0468623 30.9449 0.957071 34.0168C1.86728 37.0887 3.59752 39.9459 6.01652 42.3717C8.43553 44.7975 11.4797 46.7281 14.9182 48.017C18.3567 49.306 22.0991 49.9194 25.8615 49.8108C29.624 49.7022 33.3075 48.8745 36.6328 47.3903C40.0925 45.8362 43.0689 43.6193 45.3212 40.9189C47.7215 38.0269 49.2115 34.6707 49.6521 31.1634C50.0928 27.6562 49.4698 24.1122 47.8413 20.8622V20.8622C45.9464 17.0853 42.7683 13.8626 38.7052 11.5978C34.6421 9.3329 29.8746 8.12658 25 8.12992V8.12992Z" fill="#3F3D56"/>
<path d="M25 49.8821C21.7351 49.8827 18.5021 49.3424 15.4857 48.292C12.4692 47.2416 9.7284 45.7017 7.41981 43.7603C5.11122 41.819 3.2801 39.5141 2.03104 36.9774C0.781989 34.4408 0.139482 31.722 0.140229 28.9765C0.140229 17.4491 11.2923 8.07092 25 8.07092C38.7077 8.07092 49.8597 17.4491 49.8597 28.9765C49.8709 33.2618 48.3056 37.4452 45.3786 40.9531V40.9531C43.0842 43.7084 40.0344 45.9583 36.4872 47.5125C32.94 49.0667 28.9998 49.8795 25 49.8821V49.8821ZM25 8.24784C11.4083 8.24784 0.350608 17.5467 0.350608 28.9765C0.351003 33.3865 2.02375 37.6814 5.12573 41.2372C8.22771 44.7929 12.5973 47.4241 17.5994 48.7484C22.6015 50.0727 27.9754 50.021 32.9402 48.6009C37.9049 47.1807 42.2018 44.4662 45.2063 40.8517V40.8517C48.1085 37.3735 49.6604 33.2255 49.6493 28.9765C49.6493 17.5467 38.5917 8.24784 25 8.24784V8.24784Z" fill="#3F3D56"/>
<path d="M9.25665 17.6539C12.9553 17.6539 15.9537 15.1324 15.9537 12.0221C15.9537 8.91168 12.9553 6.39023 9.25665 6.39023C5.55797 6.39023 2.5596 8.91168 2.5596 12.0221C2.5596 15.1324 5.55797 17.6539 9.25665 17.6539Z" fill="#FF6584"/>
<path d="M37.5449 19.2838C43.8772 19.2838 49.0106 14.967 49.0106 9.64192C49.0106 4.31684 43.8772 0 37.5449 0C31.2126 0 26.0793 4.31684 26.0793 9.64192C26.0793 14.967 31.2126 19.2838 37.5449 19.2838Z" fill="#6C63FF"/>
<path opacity="0.2" d="M46.0738 3.20184C47.1433 5.30564 47.2884 7.6607 46.4831 9.84617C45.6779 12.0316 43.9748 13.9051 41.6781 15.1318C39.3815 16.3585 36.641 16.8585 33.9464 16.5425C31.2517 16.2264 28.7785 15.1149 26.9687 13.4066C27.622 14.6919 28.5998 15.8424 29.8344 16.7784C31.0689 17.7144 32.5307 18.4135 34.1184 18.8272C35.7062 19.241 37.3819 19.3595 39.0295 19.1746C40.6771 18.9896 42.2572 18.5057 43.6603 17.7562C45.0635 17.0068 46.256 16.0097 47.1555 14.8342C48.0549 13.6587 48.6396 12.3328 48.8692 10.9483C49.0988 9.56391 48.9677 8.15406 48.485 6.81646C48.0023 5.47886 47.1796 4.24551 46.0738 3.20184V3.20184Z" fill="black"/>
<path d="M37.5764 9.64194H37.6079L38.1749 36.9784H36.978L37.5764 9.64194Z" fill="#3F3D56"/>
<path d="M39.6641 24.5319L39.4 24.11L37.5047 24.9492L37.7688 25.3711L39.6641 24.5319Z" fill="#3F3D56"/>
<path d="M35.6973 35.7944C35.6973 35.7944 35.7457 34.9411 36.7385 35.0403Z" fill="#3F3D56"/>
<path d="M35.4168 34.9824C35.6912 34.9824 35.9137 34.7953 35.9137 34.5646C35.9137 34.3338 35.6912 34.1467 35.4168 34.1467C35.1424 34.1467 34.92 34.3338 34.92 34.5646C34.92 34.7953 35.1424 34.9824 35.4168 34.9824Z" fill="#6C63FF"/>
<path d="M35.4762 35.2682H35.336V36.0938H35.4762V35.2682Z" fill="#3F3D56"/>
<path d="M42.2191 37.3867C42.2191 37.3867 42.2675 36.5334 43.2602 36.6326Z" fill="#3F3D56"/>
<path d="M41.9385 36.5746C42.213 36.5746 42.4354 36.3876 42.4354 36.1568C42.4354 35.9261 42.213 35.739 41.9385 35.739C41.6641 35.739 41.4417 35.9261 41.4417 36.1568C41.4417 36.3876 41.6641 36.5746 41.9385 36.5746Z" fill="#6C63FF"/>
<path d="M41.9979 36.8604H41.8577V37.686H41.9979V36.8604Z" fill="#3F3D56"/>
<path d="M7.3663 37.7405C7.3663 37.7405 7.41473 36.8872 8.40748 36.9864Z" fill="#3F3D56"/>
<path d="M7.08582 36.9285C7.36023 36.9285 7.58268 36.7414 7.58268 36.5107C7.58268 36.2799 7.36023 36.0928 7.08582 36.0928C6.81141 36.0928 6.58896 36.2799 6.58896 36.5107C6.58896 36.7414 6.81141 36.9285 7.08582 36.9285Z" fill="#6C63FF"/>
<path d="M7.1452 37.2142H7.00494V38.0399H7.1452V37.2142Z" fill="#3F3D56"/>
<path d="M39.6244 36.3842C39.6244 36.3842 39.6728 35.5308 40.6656 35.63Z" fill="#3F3D56"/>
<path d="M39.3439 35.5721C39.6183 35.5721 39.8407 35.3851 39.8407 35.1543C39.8407 34.9235 39.6183 34.7365 39.3439 34.7365C39.0695 34.7365 38.847 34.9235 38.847 35.1543C38.847 35.3851 39.0695 35.5721 39.3439 35.5721Z" fill="#6C63FF"/>
<path d="M39.4033 35.8579H39.263V36.6835H39.4033V35.8579Z" fill="#3F3D56"/>
<path d="M12.7409 12.3555L13.3864 11.9213C12.8849 11.8748 12.6789 12.1048 12.5946 12.2869C12.2028 12.1501 11.7762 12.3294 11.7762 12.3294L13.0679 12.7237C13.0027 12.5773 12.8893 12.4496 12.7409 12.3555V12.3555Z" fill="#3F3D56"/>
<path d="M22.5586 16.7784L23.2041 16.3442C22.7026 16.2977 22.4965 16.5277 22.4122 16.7098C22.0204 16.573 21.5939 16.7523 21.5939 16.7523L22.8855 17.1466C22.8204 17.0002 22.707 16.8725 22.5586 16.7784V16.7784Z" fill="#3F3D56"/>
<path d="M11.9695 20.5526L12.6151 20.1184C12.1136 20.0719 11.9075 20.3019 11.8232 20.484C11.4314 20.3472 11.0049 20.5265 11.0049 20.5265L12.2965 20.9208C12.2313 20.7744 12.1179 20.6467 11.9695 20.5526Z" fill="#3F3D56"/>
<path opacity="0.2" d="M33.6957 31.6303C33.6972 32.579 33.4648 33.5177 33.0133 34.3872L18.4712 28.2588L17.3654 27.7971L18.864 27.7281L31.852 27.1313C33.0884 28.339 33.6957 29.9112 33.6957 31.6303Z" fill="black"/>
<path d="M35.4488 27.7971H14.5512V26.3818L24.9299 22.7255L35.4488 26.3818V27.7971Z" fill="#3F3D56"/>
</g>
<defs>
<clipPath id="clip0">
<rect width="50" height="50" fill="white"/>
</clipPath>
</defs>
</svg>
