<svg width="60" height="45" viewBox="0 0 60 45" fill="none" xmlns="http://www.w3.org/2000/svg">
<g clip-path="url(#clip0)">
<path opacity="0.1" d="M59.9996 29.4097C60.0029 31.7477 59.5289 34.0419 58.6297 36.0417C58.6297 38.4874 57.7832 40.7042 56.4101 42.3198C56.0664 42.7237 55.6964 43.0849 55.3045 43.3993C55.2888 43.4127 55.2725 43.4254 55.2563 43.4381C55.2269 43.4614 55.1975 43.4848 55.1676 43.5088L55.1398 43.5307C55.0145 43.626 54.8865 43.7179 54.7559 43.8041C53.5525 44.6011 52.2284 45.0122 50.8874 45.005H11.3897C11.075 45.005 10.7631 44.9881 10.454 44.9541C9.35556 44.8376 8.27619 44.5009 7.25155 43.9552C7.05155 43.8488 6.85539 43.7344 6.66308 43.6119C6.57148 43.554 6.48074 43.4944 6.39088 43.4332C6.33476 43.395 6.27864 43.3555 6.22305 43.3159C5.88572 43.0743 5.55896 42.8068 5.24438 42.5148C4.95688 42.2498 4.68025 41.964 4.41571 41.6586C2.63092 39.5958 1.5269 36.7411 1.5269 33.5911C0.52649 31.5162 -0.00416224 29.094 -0.000376614 26.62C-0.000376614 19.6164 4.15557 13.9387 9.28284 13.9387C9.44018 13.9387 9.59752 13.9451 9.75487 13.9564C9.77742 13.9564 9.79945 13.9564 9.822 13.9606C10.6863 11.9762 11.8418 10.1529 13.2311 8.54789C17.0199 4.17504 22.5573 1.41852 28.7257 1.41852C33.9085 1.41852 38.6461 3.36475 42.275 6.58046C43.6501 5.53344 45.2032 4.98457 46.7828 4.98744C51.9091 4.98744 56.066 10.6651 56.066 17.6687C56.0653 18.1118 56.0478 18.5546 56.0136 18.9954C57.2493 20.1736 58.2565 21.7348 58.9502 23.5473C59.6439 25.3598 60.0039 27.3705 59.9996 29.4097V29.4097Z" fill="#6C63FF"/>
<path opacity="0.1" d="M47.7635 19.3542V18.5962C48.2036 18.3555 48.568 17.9162 48.7941 17.3534C49.0203 16.7907 49.0942 16.1396 49.0031 15.5116C48.9121 14.8835 48.6618 14.3177 48.2951 13.9109C47.9284 13.504 47.4681 13.2816 46.993 13.2816C46.5179 13.2816 46.0576 13.504 45.6909 13.9109C45.3242 14.3177 45.0739 14.8835 44.9829 15.5116C44.8919 16.1396 44.9657 16.7907 45.1919 17.3534C45.418 17.9162 45.7824 18.3555 46.2226 18.5962V19.3542C45.7094 19.5464 45.2458 19.9261 44.883 20.4513C44.4989 19.6749 43.9204 19.1103 43.253 18.8604V18.1017C43.6931 17.861 44.0575 17.4217 44.2836 16.8589C44.5098 16.2962 44.5837 15.6451 44.4926 15.017C44.4016 14.389 44.1513 13.8232 43.7846 13.4163C43.4179 13.0095 42.9576 12.7871 42.4825 12.7871C42.0074 12.7871 41.5472 13.0095 41.1804 13.4163C40.8137 13.8232 40.5634 14.389 40.4724 15.017C40.3814 15.6451 40.4552 16.2962 40.6814 16.8589C40.9075 17.4217 41.2719 17.861 41.7121 18.1017V18.8597C41.2558 19.0303 40.8377 19.3496 40.4948 19.7894C40.112 19.0974 39.5694 18.5965 38.9523 18.3652V17.6072C39.3924 17.3665 39.7568 16.9272 39.9829 16.3644C40.2091 15.8017 40.283 15.1506 40.1919 14.5225C40.1009 13.8945 39.8506 13.3287 39.4839 12.9218C39.1172 12.515 38.6569 12.2926 38.1818 12.2926C37.7067 12.2926 37.2465 12.515 36.8797 12.9218C36.513 13.3287 36.2627 13.8945 36.1717 14.5225C36.0807 15.1506 36.1545 15.8017 36.3807 16.3644C36.6068 16.9272 36.9712 17.3665 37.4114 17.6072V18.3652C36.8864 18.5623 36.4136 18.9557 36.0477 19.4998C35.8846 18.9366 35.6264 18.4323 35.2935 18.0269C34.9606 17.6215 34.5621 17.3262 34.1297 17.1643V16.4063C34.5699 16.1656 34.9342 15.7262 35.1604 15.1635C35.3865 14.6008 35.4604 13.9496 35.3694 13.3216C35.2783 12.6936 35.028 12.1277 34.6613 11.7209C34.2946 11.3141 33.8343 11.0916 33.3593 11.0916C32.8842 11.0916 32.4239 11.3141 32.0572 11.7209C31.6905 12.1277 31.4402 12.6936 31.3491 13.3216C31.2581 13.9496 31.332 14.6008 31.5581 15.1635C31.7843 15.7262 32.1486 16.1656 32.5888 16.4063V17.1643C32.0268 17.3751 31.5254 17.8104 31.1509 18.4129C30.7763 19.0154 30.5462 19.7567 30.4909 20.5389C30.2262 20.2914 29.9324 20.1059 29.6218 19.99V19.232C30.062 18.9913 30.4264 18.552 30.6525 17.9892C30.8787 17.4265 30.9525 16.7754 30.8615 16.1473C30.7705 15.5193 30.5202 14.9535 30.1535 14.5466C29.7867 14.1398 29.3265 13.9174 28.8514 13.9174C28.3763 13.9174 27.916 14.1398 27.5493 14.5466C27.1826 14.9535 26.9323 15.5193 26.8413 16.1473C26.7502 16.7754 26.8241 17.4265 27.0503 17.9892C27.2764 18.552 27.6408 18.9913 28.0809 19.232V19.99C27.6892 20.137 27.3248 20.3935 27.0116 20.7428C26.6984 21.0922 26.4433 21.5265 26.2631 22.0175C26.0201 21.8072 25.7548 21.6476 25.4764 21.5442V20.7862C25.9166 20.5455 26.2809 20.1061 26.5071 19.5434C26.7332 18.9807 26.8071 18.3295 26.716 17.7015C26.625 17.0735 26.3747 16.5076 26.008 16.1008C25.6413 15.694 25.181 15.4715 24.7059 15.4715C24.2309 15.4715 23.7706 15.694 23.4039 16.1008C23.0372 16.5076 22.7869 17.0735 22.6958 17.7015C22.6048 18.3295 22.6786 18.9807 22.9048 19.5434C23.1309 20.1061 23.4953 20.5455 23.9355 20.7862V21.5442C23.6727 21.6419 23.4217 21.7898 23.1902 21.9836C23.0087 21.5006 22.7545 21.0739 22.4438 20.7307C22.133 20.3874 21.7726 20.1352 21.3855 19.99V19.232C21.8256 18.9913 22.19 18.552 22.4161 17.9892C22.6423 17.4265 22.7162 16.7754 22.6251 16.1473C22.5341 15.5193 22.2838 14.9535 21.9171 14.5466C21.5504 14.1398 21.0901 13.9174 20.615 13.9174C20.1399 13.9174 19.6797 14.1398 19.3129 14.5466C18.9462 14.9535 18.6959 15.5193 18.6049 16.1473C18.5139 16.7754 18.5877 17.4265 18.8139 17.9892C19.04 18.552 19.4044 18.9913 19.8446 19.232V19.99C19.4279 20.1461 19.0425 20.4262 18.7169 20.8097C18.3913 21.1931 18.1338 21.6701 17.9633 22.2054C17.67 21.9021 17.3361 21.6777 16.9799 21.5442V20.7862C17.42 20.5455 17.7844 20.1061 18.0106 19.5434C18.2367 18.9807 18.3106 18.3295 18.2195 17.7015C18.1285 17.0735 17.8782 16.5076 17.5115 16.1008C17.1448 15.694 16.6845 15.4715 16.2094 15.4715C15.7343 15.4715 15.2741 15.694 14.9074 16.1008C14.5406 16.5076 14.2903 17.0735 14.1993 17.7015C14.1083 18.3295 14.1821 18.9807 14.4083 19.5434C14.6344 20.1061 14.9988 20.5455 15.439 20.7862V21.5442C14.8311 21.7711 14.2953 22.2601 13.9134 22.9363C13.5316 23.6126 13.3248 24.4387 13.3248 25.2883V42.8079H19.0909V41.2538H21.8182V42.8079H27.5874V41.2538H31.7308V38.428H35.2972V39.629H39.5979V40.1235H44.1084V40.618H49.8776V23.0983C49.8776 22.2488 49.6708 21.4226 49.289 20.7464C48.9072 20.0702 48.3713 19.5812 47.7635 19.3542V19.3542Z" fill="#6C63FF"/>
<path d="M25.7401 11.9388H30.5354C31.7083 11.9387 32.8697 12.2498 33.9533 12.8542C35.0369 13.4587 36.0214 14.3448 36.8508 15.4618C37.6802 16.5788 38.338 17.9049 38.7869 19.3644C39.2357 20.8239 39.4668 22.3882 39.4668 23.968V40.2669H16.8094V23.968C16.8094 20.7776 17.7503 17.718 19.4251 15.4621C21.1 13.2061 23.3716 11.9388 25.7401 11.9388V11.9388Z" fill="#2F2E41"/>
<path opacity="0.2" d="M26.2648 12.5944H30.0111C31.184 12.5943 32.3454 12.9053 33.4289 13.5098C34.5125 14.1143 35.4971 15.0004 36.3265 16.1174C37.1558 17.2344 37.8137 18.5605 38.2626 20.02C38.7114 21.4795 38.9424 23.0438 38.9424 24.6236V39.6106H17.334V24.6236C17.334 21.4332 18.2749 18.3735 19.9498 16.1176C21.6246 13.8617 23.8962 12.5944 26.2648 12.5944V12.5944Z" fill="black"/>
<path d="M54.7552 42.5691V43.8026C53.5518 44.5996 52.2278 45.0107 50.8867 45.0035H11.39C11.0753 45.0035 10.7635 44.9866 10.4544 44.9527C9.35594 44.8361 8.27656 44.4995 7.25192 43.9538C7.05192 43.8473 6.85577 43.7329 6.66346 43.6104C6.57185 43.5525 6.48111 43.4929 6.39125 43.4317C6.33514 43.3936 6.27902 43.354 6.22342 43.3144C5.88612 43.0733 5.55936 42.8063 5.24475 42.5147V39.1648C5.24475 38.6234 5.40444 38.1041 5.6887 37.7212C5.97295 37.3383 6.35849 37.1232 6.76049 37.1232H50.3565C50.7232 37.1241 51.0772 37.3041 51.353 37.6297L54.2376 41.0348C54.4001 41.2261 54.5303 41.4619 54.6196 41.7266C54.7089 41.9912 54.7551 42.2785 54.7552 42.5691V42.5691Z" fill="#2F2E41"/>
<path d="M25.3148 15.952C24.1711 16.0538 23.0318 16.2186 21.8968 16.4465C21.5743 16.5115 21.247 16.5836 20.9528 16.7757C20.7241 16.937 20.5134 17.1405 20.3266 17.3804C19.4841 18.3971 18.8057 19.6362 18.3335 21.0207C18.0414 21.879 17.8316 22.7868 17.5563 23.6522C16.576 26.7428 14.7981 29.2705 13.7633 32.3286C13.5393 32.9906 13.3505 33.6815 13.2755 34.4013C13.1979 35.1459 13.286 36.0148 13.7402 36.45C13.95 36.6499 14.2049 36.7326 14.4545 36.8032C17.5973 37.7406 20.7766 38.4399 23.9774 38.8978C23.6307 38.4471 23.5148 37.7484 23.5605 37.1027C23.6061 36.4571 23.7944 35.8467 23.98 35.2484C22.1685 34.71 20.3615 34.1449 18.5591 33.5529C18.29 33.4646 17.9669 33.2986 17.9339 32.9284C17.9171 32.7398 17.9863 32.5582 18.0545 32.3922C18.8233 30.5173 19.7451 28.7639 20.8028 27.1646C20.8028 29.1469 20.7299 31.3856 20.7299 33.3685H37.7281C37.5237 32.2371 37.4035 31.0811 37.3693 29.9176C37.2901 26.1198 38.2394 22.3509 37.9929 18.5609C37.9699 18.2112 37.9342 17.8509 37.7984 17.5514C37.5639 17.0343 37.0961 16.8202 36.666 16.6436C35.0171 15.9683 33.3335 15.2851 31.6101 15.3381C31.0977 15.3544 30.5874 15.4349 30.0781 15.5162C28.5262 15.7627 26.8741 15.8129 25.3148 15.952Z" fill="#6C63FF"/>
<path d="M17.3538 38.7353L18.5916 44.071C18.5995 44.1048 18.6152 44.1343 18.6364 44.1553C18.6577 44.1763 18.6833 44.1876 18.7096 44.1876H24.021L22.7622 37.9709L17.4619 38.5198C17.4434 38.5219 17.4255 38.5295 17.4095 38.5421C17.3936 38.5547 17.3799 38.572 17.3695 38.5927C17.3591 38.6134 17.3523 38.6369 17.3496 38.6616C17.3469 38.6863 17.3484 38.7115 17.3538 38.7353V38.7353Z" fill="#656478"/>
<path d="M26.4335 18.2465C26.2028 18.4253 25.9337 18.4896 25.6715 18.551L23.979 18.9466C23.6496 19.0236 23.303 19.1112 23.0491 19.4044C22.5299 20.0028 22.6421 21.1041 22.7995 21.9999L23.1141 23.797C23.3512 25.1477 23.5935 26.5147 24.0797 27.7383C24.9288 29.8738 26.4865 31.4117 28.1994 32.1528C28.8115 32.4177 29.4582 32.5901 30.097 32.4954C31.3484 32.3103 32.4188 31.1087 33.0786 29.664C33.7384 28.2193 34.0526 26.5437 34.3405 24.892C34.6169 23.311 34.8796 21.7074 34.8618 20.0826C34.8566 19.5768 34.8188 19.0484 34.6185 18.6195C34.1795 17.6779 33.1846 17.6072 32.369 17.781C32.2421 17.8086 32.1104 17.8382 31.9882 17.7867C31.6211 17.6327 31.6127 16.9538 31.4554 16.4826C31.158 15.5939 30.2758 15.4363 29.5547 15.5169C28.8335 15.5974 27.7106 15.7012 27.0823 16.2516C26.4781 16.7779 27.1421 17.6962 26.4335 18.2465Z" fill="#FBBEBE"/>
<path opacity="0.1" d="M26.4335 18.2465C26.2028 18.4253 25.9337 18.4896 25.6715 18.551L23.979 18.9466C23.6496 19.0236 23.303 19.1112 23.0491 19.4044C22.5299 20.0028 22.6421 21.1041 22.7995 21.9999L23.1141 23.797C23.3512 25.1477 23.5935 26.5147 24.0797 27.7383C24.9288 29.8738 26.4865 31.4117 28.1994 32.1528C28.8115 32.4177 29.4582 32.5901 30.097 32.4954C31.3484 32.3103 32.4188 31.1087 33.0786 29.664C33.7384 28.2193 34.0526 26.5437 34.3405 24.892C34.6169 23.311 34.8796 21.7074 34.8618 20.0826C34.8566 19.5768 34.8188 19.0484 34.6185 18.6195C34.1795 17.6779 33.1846 17.6072 32.369 17.781C32.2421 17.8086 32.1104 17.8382 31.9882 17.7867C31.6211 17.6327 31.6127 16.9538 31.4554 16.4826C31.158 15.5939 30.2758 15.4363 29.5547 15.5169C28.8335 15.5974 27.7106 15.7012 27.0823 16.2516C26.4781 16.7779 27.1421 17.6962 26.4335 18.2465Z" fill="black"/>
<path d="M25.0327 20.2712C25.2886 20.9946 25.4806 21.7618 25.79 22.4463C26.036 22.9903 26.3512 23.47 26.6648 23.9468C27.4773 25.1845 28.3002 26.4321 29.3056 27.3744C29.7219 24.4934 30.7278 21.8263 32.2096 19.6743C32.6428 19.0477 33.1851 18.4302 33.8208 18.4535C34.2152 18.4684 34.5792 18.7319 34.9075 19.025C35.2746 19.3521 35.6218 19.7315 35.8856 20.2027C36.3026 20.9529 36.4825 21.9031 36.515 22.8391C36.5475 23.7751 36.4395 24.7091 36.3325 25.6345L35.7818 30.4178C35.7498 30.6947 35.7052 31.0006 35.5374 31.1666C35.4421 31.2479 35.3346 31.3 35.2227 31.3192C33.2208 31.8441 31.1575 31.5036 29.1178 31.4767C26.8626 31.4478 24.5449 31.7939 22.4087 30.8275C22.297 30.7767 22.1811 30.718 22.1056 30.5972C22.056 30.5061 22.0203 30.4026 22.0007 30.2927C21.503 28.1226 21.9021 25.7906 22.1974 23.5547C22.4312 21.7829 22.5976 19.9961 22.6961 18.2013C22.7051 18.0396 24.0246 18.397 24.172 18.5115C24.5732 18.8315 24.8397 19.7258 25.0327 20.2712Z" fill="#6C63FF"/>
<g opacity="0.2">
<path opacity="0.2" d="M8.75185 37.9208C8.75185 37.9533 8.74923 37.9851 8.74661 38.0162C8.54662 37.9097 8.35047 37.7953 8.15816 37.6728C8.05543 37.6546 7.95989 37.5919 7.88597 37.4941C7.82985 37.456 7.77373 37.4164 7.71814 37.3768C7.73073 37.3413 7.74491 37.3069 7.76062 37.2737C7.86866 37.0434 8.03282 36.8993 8.21376 36.9071C8.3947 36.9148 8.55151 37.0724 8.64854 37.3104C8.72274 37.4979 8.75841 37.7086 8.75185 37.9208V37.9208Z" fill="#3F3D56"/>
<path opacity="0.2" d="M8.78018 36.7114C8.7766 36.9233 8.73116 37.1301 8.64854 37.3105C8.5405 37.54 8.37634 37.6842 8.1954 37.6764L8.15816 37.6729C8.05543 37.6547 7.95989 37.5919 7.88597 37.4941C7.83584 37.43 7.79354 37.3556 7.76062 37.2737C7.68825 37.0857 7.65285 36.8758 7.65781 36.664C7.66276 36.4523 7.70791 36.2458 7.78894 36.0643C7.89698 35.834 8.06114 35.6899 8.24208 35.6977C8.42302 35.7054 8.57983 35.863 8.67686 36.101C8.75106 36.2885 8.78673 36.4992 8.78018 36.7114V36.7114Z" fill="#3F3D56"/>
<path opacity="0.2" d="M8.80847 35.5038C8.82129 34.9574 8.58055 34.5038 8.27076 34.4907C7.96097 34.4775 7.69945 34.9097 7.68663 35.456C7.67381 36.0024 7.91455 36.456 8.22434 36.4692C8.53413 36.4823 8.79565 36.0501 8.80847 35.5038Z" fill="#3F3D56"/>
<path opacity="0.2" d="M8.83709 34.2943C8.84991 33.748 8.60918 33.2944 8.2994 33.2812C7.98962 33.268 7.7281 33.7002 7.71529 34.2466C7.70247 34.7929 7.9432 35.2465 8.25298 35.2597C8.56276 35.2728 8.82428 34.8406 8.83709 34.2943Z" fill="#3F3D56"/>
<path opacity="0.2" d="M8.86523 33.0849C8.87805 32.5385 8.63731 32.085 8.32752 32.0718C8.01773 32.0586 7.75621 32.4908 7.74339 33.0371C7.73058 33.5834 7.97131 34.037 8.2811 34.0502C8.59089 34.0634 8.85241 33.6312 8.86523 33.0849Z" fill="#3F3D56"/>
<path opacity="0.2" d="M6.39847 24.6935C6.32461 24.5588 6.25801 24.4171 6.19917 24.2696L7.68134 24.0061L6.08378 23.9553C5.94141 23.5004 5.86941 23.0112 5.87221 22.5175C5.875 22.0239 5.95253 21.5362 6.10004 21.0843L8.20424 22.6695L6.27679 20.6322C6.47123 20.2086 6.72843 19.8435 7.03231 19.5599C7.3362 19.2762 7.68025 19.0799 8.04297 18.9834C8.4057 18.8868 8.77931 18.892 9.14047 18.9987C9.50162 19.1054 9.84257 19.3112 10.142 19.6034C10.4415 19.8955 10.693 20.2676 10.8808 20.6966C11.0687 21.1255 11.1889 21.602 11.2339 22.0963C11.2789 22.5907 11.2477 23.0922 11.1424 23.5695C11.037 24.0469 10.8597 24.4899 10.6216 24.8708C10.7363 25.0804 10.8339 25.3061 10.9126 25.544L8.96841 26.8043L11.0312 25.9686C11.1611 26.5457 11.1822 27.1574 11.0924 27.7482C11.0027 28.3391 10.805 28.8904 10.5172 29.3524C10.8168 29.8998 10.9959 30.5497 11.0341 31.2278C11.0723 31.9059 10.968 32.5848 10.7332 33.1868C10.4984 33.7888 10.1425 34.2896 9.70632 34.632C9.27009 34.9743 8.77113 35.1444 8.26651 35.1227C7.76189 35.101 7.27199 34.8885 6.85286 34.5093C6.43373 34.1302 6.10229 33.5998 5.89645 32.9789C5.69062 32.3579 5.6187 31.6715 5.68893 30.998C5.75916 30.3246 5.9687 29.6914 6.29357 29.1709C5.93578 28.5168 5.7516 27.7197 5.77062 26.9077C5.78965 26.0957 6.01077 25.3159 6.39847 24.6935V24.6935Z" fill="#6C63FF"/>
<path opacity="0.1" d="M11.145 27.1356C11.1266 27.9483 10.9048 28.7287 10.5157 29.3503C10.8157 29.8975 10.9952 30.5474 11.0338 31.2256C11.0724 31.9038 10.9684 32.5829 10.7338 33.1852C10.4992 33.7875 10.1435 34.2887 9.70728 34.6315C9.27108 34.9742 8.77206 35.1446 8.26732 35.1231C7.76259 35.1017 7.27253 34.8893 6.85324 34.5102C6.43395 34.1311 6.10236 33.6007 5.89643 32.9796C5.69049 32.3586 5.61853 31.672 5.68878 30.9984C5.75903 30.3248 5.96864 29.6915 6.29364 29.1709C5.94591 28.5393 11.1545 26.7294 11.145 27.1356Z" fill="black"/>
</g>
<path opacity="0.1" d="M3.56745 11.5015C4.19399 11.5015 4.70189 10.8174 4.70189 9.9735C4.70189 9.12959 4.19399 8.44547 3.56745 8.44547C2.94092 8.44547 2.43301 9.12959 2.43301 9.9735C2.43301 10.8174 2.94092 11.5015 3.56745 11.5015Z" fill="#6C63FF"/>
<path opacity="0.1" d="M8.29566 3.05604C8.9222 3.05604 9.43011 2.37193 9.43011 1.52802C9.43011 0.684119 8.9222 0 8.29566 0C7.66913 0 7.16122 0.684119 7.16122 1.52802C7.16122 2.37193 7.66913 3.05604 8.29566 3.05604Z" fill="#6C63FF"/>
<path opacity="0.1" d="M7.91123 9.89079C8.96125 9.89079 9.81246 8.74427 9.81246 7.32996C9.81246 5.91566 8.96125 4.76913 7.91123 4.76913C6.86122 4.76913 6.01001 5.91566 6.01001 7.32996C6.01001 8.74427 6.86122 9.89079 7.91123 9.89079Z" fill="#6C63FF"/>
<path d="M28.479 19.0385C30.9122 19.0385 32.8846 16.3817 32.8846 13.1044C32.8846 9.82709 30.9122 7.17032 28.479 7.17032C26.0459 7.17032 24.0734 9.82709 24.0734 13.1044C24.0734 16.3817 26.0459 19.0385 28.479 19.0385Z" fill="#FBBEBE"/>
<path d="M26.6895 1.46021C25.5141 1.66084 24.2454 1.92575 23.4147 3.06311C22.95 3.69891 22.6778 4.54663 22.4538 5.38588C22.1066 6.69278 21.8481 8.07034 21.9294 9.45707C22.0017 10.6976 22.3426 11.9663 22.0668 13.1546C21.9398 13.7013 21.6907 14.1789 21.4972 14.6882C21.1384 15.6342 20.9696 16.6945 20.9077 17.7535C20.8647 18.4818 20.8731 19.2313 21.0509 19.9215C21.2402 20.6562 21.6094 21.2814 21.8433 21.9921C22.1895 23.0418 22.2241 24.223 22.2509 25.371C22.2776 26.5189 22.3002 27.6591 22.3201 28.8028C22.3327 29.522 22.3337 30.292 22.0384 30.8918C23.1288 30.3033 24.2344 29.7028 25.1675 28.7421C26.1005 27.7813 26.8558 26.396 26.9764 24.8221C27.0739 23.5462 26.754 22.2888 26.4781 21.061C25.7963 18.0233 25.3558 14.785 25.8519 11.6831C26.0308 10.5662 26.4655 9.31932 27.3 9.11374C27.8093 8.9887 28.3175 9.30165 28.7764 9.6252C29.861 10.3896 30.9792 11.3786 31.383 12.9349C31.7502 14.3421 31.4412 15.9097 30.9634 17.2533C30.4857 18.5969 29.8353 19.8325 29.464 21.2369C28.8939 23.3915 29.0544 25.9142 30.0016 27.8124C30.9488 29.7106 32.6989 30.8783 34.382 30.5717C34.2503 29.806 33.8376 29.1871 33.6162 28.4595C33.214 27.1378 33.4851 25.6175 33.9178 24.3134C34.3505 23.0093 34.9411 21.7936 35.2117 20.409C35.4026 19.4341 35.4257 18.4154 35.4246 17.4073C35.4246 15.8206 35.3664 14.2333 35.2531 12.6537C35.1398 11.0741 34.9668 9.47473 34.5933 7.95519C34.2933 6.73658 33.8565 5.55825 33.203 4.62363C32.5075 3.62826 31.6023 2.95362 30.7133 2.29239C30.1815 1.8982 29.6381 1.49906 29.0412 1.35142C28.5692 1.23486 28.0731 1.06884 27.5916 1.05825C27.2643 1.05189 26.9203 1.14726 26.6895 1.46021Z" fill="#434175"/>
<path d="M34.9815 9.11933L32.1471 8.37862C32.0647 8.35707 31.9848 8.42964 31.9688 8.54072L30.6109 17.9682C30.5949 18.0793 30.6487 18.1868 30.7312 18.2083L33.5656 18.9491C33.6481 18.9706 33.7279 18.898 33.7439 18.787L35.1019 9.35947C35.1179 9.24839 35.064 9.14088 34.9815 9.11933Z" fill="#656478"/>
<path d="M35.1957 9.1753L32.3613 8.43459C32.2789 8.41304 32.1991 8.48561 32.1831 8.59668L30.8251 18.0242C30.8091 18.1352 30.863 18.2428 30.9454 18.2643L33.7798 19.005C33.8623 19.0266 33.9421 18.954 33.9581 18.8429L35.3161 9.41543C35.3321 9.30436 35.2782 9.19685 35.1957 9.1753Z" fill="#3F3D56"/>
<path d="M33.6821 10.9889C33.7376 10.604 33.6868 10.267 33.5688 10.2361C33.4508 10.2053 33.3102 10.4923 33.2548 10.8772C33.1994 11.2622 33.2501 11.5992 33.3681 11.6301C33.4861 11.6609 33.6267 11.3739 33.6821 10.9889Z" fill="#6C63FF"/>
<path d="M34.3532 14.1993C34.2147 13.8694 34.0668 13.5282 33.8334 13.317C33.6993 13.2062 33.5551 13.119 33.4044 13.0577C32.8962 12.8183 32.3796 12.5766 31.842 12.5385C31.7544 12.5328 31.6542 12.5385 31.5971 12.6289C31.4796 12.8147 31.6658 13.0676 31.8268 13.1799L33.1076 14.0736L31.927 13.9055C31.7555 13.8807 31.511 13.9436 31.5236 14.1753C31.532 14.3272 31.6558 14.4099 31.7628 14.4579C32.5207 14.8111 33.3965 15.088 33.8114 16.0121C33.2586 15.9414 32.6937 15.8708 32.152 16.0347C32.0035 16.0799 31.8499 16.1498 31.7528 16.3074C31.6558 16.4649 31.6448 16.7312 31.767 16.8563C31.8425 16.9318 31.9443 16.934 32.0387 16.9269C32.4231 16.9022 32.8175 16.799 33.1868 16.9467C33.556 17.0943 33.8838 17.6157 33.7563 18.1045C34.0836 18.1441 34.4707 18.1045 34.7733 17.9145C35.1069 17.7026 35.099 17.3041 35.0786 16.8238C35.035 15.8828 34.6883 15.0047 34.3532 14.1993Z" fill="#FBBEBE"/>
<path opacity="0.1" d="M34.0222 29.599C33.7287 26.819 33.326 24.0619 32.8159 21.3393C32.5537 19.9264 32.2558 18.4896 32.3308 17.0357C33.4143 17.2215 34.3851 17.3593 35.3837 16.763C35.4 17.5267 35.8112 18.1759 35.9606 18.9141C36.0608 19.4086 36.023 19.9321 36.0624 20.4414C36.1017 20.9508 36.2197 21.4446 36.3209 21.9398C36.8232 24.3938 36.9416 26.9615 36.6687 29.4803C35.7419 29.6286 34.9468 29.7918 34.0222 29.599Z" fill="black"/>
<path d="M33.8648 29.599C33.5713 26.819 33.1687 24.0619 32.6586 21.3393C32.3963 19.9264 32.0984 18.4896 32.1734 17.0357C33.257 17.2215 34.2278 17.3593 35.2264 16.763C35.2426 17.5267 35.6538 18.1759 35.8033 18.9141C35.9035 19.4086 35.8657 19.9321 35.905 20.4414C35.9444 20.9508 36.0624 21.4446 36.1636 21.9398C36.6658 24.3938 36.7843 26.9615 36.5113 29.4803C35.5846 29.6286 34.7895 29.7918 33.8648 29.599Z" fill="#6C63FF"/>
<path d="M18.7044 43.359L19.2178 26.2018C19.226 25.929 19.3127 25.6713 19.4596 25.4833C19.6065 25.2952 19.8019 25.1916 20.0046 25.1944L40.2766 25.4558C40.3841 25.4573 40.4901 25.4886 40.5881 25.548C40.6861 25.6073 40.7739 25.6932 40.846 25.8004C40.9182 25.9076 40.9731 26.0337 41.0073 26.1709C41.0416 26.308 41.0544 26.4532 41.045 26.5974L39.974 43.034C39.9572 43.2925 39.8699 43.5334 39.729 43.7103C39.5881 43.8872 39.4035 43.9875 39.2109 43.9919L19.4969 44.4511C19.3907 44.4535 19.2854 44.4267 19.1872 44.3724C19.089 44.318 19.0001 44.2373 18.9259 44.135C18.8517 44.0328 18.7938 43.9112 18.7557 43.7778C18.7176 43.6443 18.7002 43.5018 18.7044 43.359Z" fill="#3F3D56"/>
<path d="M30.0263 34.4034C30.5188 34.4034 30.918 33.7709 30.918 32.9906C30.918 32.2103 30.5188 31.5777 30.0263 31.5777C29.5339 31.5777 29.1346 32.2103 29.1346 32.9906C29.1346 33.7709 29.5339 34.4034 30.0263 34.4034Z" fill="#6C63FF"/>
<path d="M49.0909 32.0199L49.0489 32.5045L48.3671 40.3361C46.5897 42.0054 45.2072 40.4011 45.1951 40.3361L44.336 32.4678L44.2872 32.0199H49.0909Z" fill="#3F3D56"/>
<path opacity="0.1" d="M49.0909 32.0199L49.0489 32.5045C47.0465 34.0728 44.9103 32.8521 44.336 32.4678L44.2872 32.0199H49.0909Z" fill="black"/>
<path d="M44.187 31.5947V32.3011C44.187 32.3011 46.8356 34.3752 49.222 32.3011V31.5947H44.187Z" fill="#6C63FF"/>
<path d="M44.4949 30.6614C44.4949 30.6614 44.4178 31.1383 44.187 31.18V31.7812H49.222V31.2421C49.222 31.2421 48.9141 31.1383 48.9598 30.6614H44.4949Z" fill="#6C63FF"/>
<path d="M46.6893 31.5947C47.9436 31.5947 48.9603 31.1999 48.9603 30.713C48.9603 30.2261 47.9436 29.8314 46.6893 29.8314C45.4351 29.8314 44.4184 30.2261 44.4184 30.713C44.4184 31.1999 45.4351 31.5947 46.6893 31.5947Z" fill="#6C63FF"/>
<path opacity="0.1" d="M46.6893 31.5947C47.9436 31.5947 48.9603 31.1999 48.9603 30.713C48.9603 30.2261 47.9436 29.8314 46.6893 29.8314C45.4351 29.8314 44.4184 30.2261 44.4184 30.713C44.4184 31.1999 45.4351 31.5947 46.6893 31.5947Z" fill="black"/>
<path opacity="0.1" d="M48.6829 30.6614C48.6829 31.0147 47.8217 31.3043 46.7586 31.3043H46.7019C45.9881 31.2972 45.3713 31.163 45.0566 30.9624C44.9145 30.8719 44.8337 30.7695 44.8337 30.6614C44.8337 30.482 45.054 30.3195 45.4107 30.2029C45.8538 30.0724 46.3066 30.0105 46.7601 30.0185C47.8217 30.0185 48.6829 30.3061 48.6829 30.6614Z" fill="black"/>
<path opacity="0.1" d="M46.7019 31.3043C45.9881 31.2973 45.3713 31.1631 45.0566 30.9624L45.4091 30.2001L46.7019 31.3043Z" fill="black"/>
<path opacity="0.1" d="M44.6906 30.7109C44.6633 30.7031 44.6271 30.7158 44.6219 30.7526C44.6212 30.7713 44.6249 30.7898 44.6324 30.8056C44.6925 30.9336 44.7799 31.0343 44.8831 31.0945C44.9007 31.1079 44.9202 31.1163 44.9403 31.1192C44.9507 31.1209 44.9613 31.1183 44.9707 31.1118C44.98 31.1052 44.9877 31.095 44.9927 31.0825C44.9956 31.0718 44.9968 31.0604 44.9961 31.0491C44.9955 31.0378 44.9931 31.0268 44.989 31.0168C44.973 30.9786 44.9508 30.9457 44.924 30.9207C44.8537 30.8465 44.7819 30.7314 44.6906 30.7109Z" fill="black"/>
<path d="M46.7659 38.262C47.5141 38.262 48.1206 37.445 48.1206 36.4373C48.1206 35.4295 47.5141 34.6125 46.7659 34.6125C46.0177 34.6125 45.4112 35.4295 45.4112 36.4373C45.4112 37.445 46.0177 38.262 46.7659 38.262Z" fill="#6C63FF"/>
<path d="M9.87741 36.4415H10.5126C10.8603 36.4415 11.1938 36.6276 11.4397 36.9588C11.6856 37.29 11.8237 37.7392 11.8237 38.2076V40.832H8.56622V38.2076C8.56622 37.7392 8.70437 37.29 8.95026 36.9588C9.19616 36.6276 9.52966 36.4415 9.87741 36.4415V36.4415Z" fill="#3F3D56"/>
<path opacity="0.1" d="M9.87741 36.4415H10.5126C10.8603 36.4415 11.1938 36.6276 11.4397 36.9588C11.6856 37.29 11.8237 37.7392 11.8237 38.2076V40.832H8.56622V38.2076C8.56622 37.7392 8.70437 37.29 8.95026 36.9588C9.19616 36.6276 9.52966 36.4415 9.87741 36.4415V36.4415Z" fill="black"/>
<path d="M10.0647 37.4072C10.2086 37.4072 10.3253 37.25 10.3253 37.0561C10.3253 36.8622 10.2086 36.705 10.0647 36.705C9.92072 36.705 9.80402 36.8622 9.80402 37.0561C9.80402 37.25 9.92072 37.4072 10.0647 37.4072Z" fill="#3F3D56"/>
<path d="M10.0647 36.9685C10.2086 36.9685 10.3253 36.8113 10.3253 36.6174C10.3253 36.4235 10.2086 36.2663 10.0647 36.2663C9.92072 36.2663 9.80402 36.4235 9.80402 36.6174C9.80402 36.8113 9.92072 36.9685 10.0647 36.9685Z" fill="#3F3D56"/>
<path d="M10.0647 36.5291C10.2086 36.5291 10.3253 36.3719 10.3253 36.178C10.3253 35.9841 10.2086 35.8269 10.0647 35.8269C9.92072 35.8269 9.80402 35.9841 9.80402 36.178C9.80402 36.3719 9.92072 36.5291 10.0647 36.5291Z" fill="#3F3D56"/>
<path d="M10.0647 36.0904C10.2086 36.0904 10.3253 35.9332 10.3253 35.7393C10.3253 35.5454 10.2086 35.3882 10.0647 35.3882C9.92072 35.3882 9.80402 35.5454 9.80402 35.7393C9.80402 35.9332 9.92072 36.0904 10.0647 36.0904Z" fill="#3F3D56"/>
<path d="M10.0647 35.6517C10.2086 35.6517 10.3253 35.4945 10.3253 35.3006C10.3253 35.1067 10.2086 34.9495 10.0647 34.9495C9.92072 34.9495 9.80402 35.1067 9.80402 35.3006C9.80402 35.4945 9.92072 35.6517 10.0647 35.6517Z" fill="#3F3D56"/>
<path d="M10.0647 35.2131C10.2086 35.2131 10.3253 35.0559 10.3253 34.862C10.3253 34.6681 10.2086 34.5109 10.0647 34.5109C9.92072 34.5109 9.80402 34.6681 9.80402 34.862C9.80402 35.0559 9.92072 35.2131 10.0647 35.2131Z" fill="#3F3D56"/>
<path d="M10.0647 34.7743C10.2086 34.7743 10.3253 34.6171 10.3253 34.4232C10.3253 34.2293 10.2086 34.0721 10.0647 34.0721C9.92072 34.0721 9.80402 34.2293 9.80402 34.4232C9.80402 34.6171 9.92072 34.7743 10.0647 34.7743Z" fill="#3F3D56"/>
<path d="M10.4559 34.9495C10.5998 34.9495 10.7166 34.7923 10.7166 34.5984C10.7166 34.4045 10.5998 34.2473 10.4559 34.2473C10.3119 34.2473 10.1952 34.4045 10.1952 34.5984C10.1952 34.7923 10.3119 34.9495 10.4559 34.9495Z" fill="#3F3D56"/>
<path d="M10.7166 34.7743C10.8606 34.7743 10.9773 34.6171 10.9773 34.4232C10.9773 34.2293 10.8606 34.0721 10.7166 34.0721C10.5727 34.0721 10.456 34.2293 10.456 34.4232C10.456 34.6171 10.5727 34.7743 10.7166 34.7743Z" fill="#3F3D56"/>
<path d="M10.9772 34.5984C11.1212 34.5984 11.2379 34.4412 11.2379 34.2473C11.2379 34.0534 11.1212 33.8962 10.9772 33.8962C10.8333 33.8962 10.7166 34.0534 10.7166 34.2473C10.7166 34.4412 10.8333 34.5984 10.9772 34.5984Z" fill="#3F3D56"/>
<path d="M10.0647 34.3357C10.2086 34.3357 10.3253 34.1785 10.3253 33.9846C10.3253 33.7906 10.2086 33.6335 10.0647 33.6335C9.92072 33.6335 9.80402 33.7906 9.80402 33.9846C9.80402 34.1785 9.92072 34.3357 10.0647 34.3357Z" fill="#3F3D56"/>
<path d="M10.0647 33.8969C10.2086 33.8969 10.3253 33.7397 10.3253 33.5458C10.3253 33.3519 10.2086 33.1947 10.0647 33.1947C9.92072 33.1947 9.80402 33.3519 9.80402 33.5458C9.80402 33.7397 9.92072 33.8969 10.0647 33.8969Z" fill="#3F3D56"/>
<path d="M10.0647 33.4575C10.2086 33.4575 10.3253 33.3003 10.3253 33.1064C10.3253 32.9125 10.2086 32.7553 10.0647 32.7553C9.92072 32.7553 9.80402 32.9125 9.80402 33.1064C9.80402 33.3003 9.92072 33.4575 10.0647 33.4575Z" fill="#3F3D56"/>
<path d="M10.0647 33.0188C10.2086 33.0188 10.3253 32.8617 10.3253 32.6677C10.3253 32.4738 10.2086 32.3167 10.0647 32.3167C9.92072 32.3167 9.80402 32.4738 9.80402 32.6677C9.80402 32.8617 9.92072 33.0188 10.0647 33.0188Z" fill="#3F3D56"/>
<path d="M11.1451 31.536C11.0806 31.5487 11.0155 31.5579 10.9505 31.5636C11.0112 31.4921 11.0675 31.4141 11.1188 31.3304C11.0826 31.183 11.0295 31.0441 10.9615 30.9186C10.8969 30.9675 10.8255 30.9978 10.7517 31.0076C10.6872 31.0203 10.6222 31.0295 10.5571 31.0359C10.6426 30.9419 10.7223 30.8006 10.8063 30.6826C10.6123 30.4458 10.3623 30.3093 10.1007 30.2973C9.83903 30.2854 9.58273 30.3989 9.37736 30.6175C9.17198 30.8362 9.03084 31.1459 8.97903 31.4915C8.92722 31.8371 8.96811 32.1963 9.09442 32.5052C9.22072 32.814 9.42426 33.0526 9.66884 33.1783C9.91342 33.304 10.1832 33.3088 10.4301 33.1919C10.6771 33.0749 10.8853 32.8438 11.0176 32.5396C11.15 32.2353 11.1979 31.8777 11.1529 31.5304L11.1451 31.536Z" fill="#6C63FF"/>
<path d="M12.0163 33.2802C11.9498 33.3352 11.8748 33.3688 11.7971 33.3784C11.7325 33.3911 11.6675 33.401 11.6025 33.4067C11.6716 33.3232 11.7361 33.233 11.7955 33.1368C11.6383 33.0816 11.4715 33.1074 11.3277 33.209C11.1839 33.3107 11.0734 33.4809 11.0178 33.6865C10.9622 33.892 10.9656 34.1181 11.0272 34.3205C11.0888 34.5229 11.2042 34.6871 11.3509 34.781C11.4976 34.8749 11.665 34.8917 11.8204 34.8281C11.9758 34.7645 12.1081 34.6252 12.1913 34.4373C12.2744 34.2494 12.3026 34.0265 12.2702 33.8121C12.2379 33.5978 12.1473 33.4073 12.0163 33.2781V33.2802Z" fill="#6C63FF"/>
<path d="M9.67399 34.9495C9.81795 34.9495 9.93466 34.7923 9.93466 34.5984C9.93466 34.4045 9.81795 34.2473 9.67399 34.2473C9.53003 34.2473 9.41333 34.4045 9.41333 34.5984C9.41333 34.7923 9.53003 34.9495 9.67399 34.9495Z" fill="#3F3D56"/>
<path d="M9.41325 34.7743C9.55721 34.7743 9.67392 34.6171 9.67392 34.4232C9.67392 34.2293 9.55721 34.0721 9.41325 34.0721C9.26929 34.0721 9.15259 34.2293 9.15259 34.4232C9.15259 34.6171 9.26929 34.7743 9.41325 34.7743Z" fill="#3F3D56"/>
<path d="M9.15263 34.5984C9.29659 34.5984 9.4133 34.4412 9.4133 34.2473C9.4133 34.0534 9.29659 33.8962 9.15263 33.8962C9.00867 33.8962 8.89197 34.0534 8.89197 34.2473C8.89197 34.4412 9.00867 34.5984 9.15263 34.5984Z" fill="#3F3D56"/>
<path d="M8.11366 33.2802C8.18013 33.3353 8.25516 33.3689 8.33289 33.3784C8.3974 33.3911 8.46243 33.401 8.52747 33.4067C8.45821 33.3234 8.3937 33.2332 8.33446 33.1368C8.49162 33.0816 8.65841 33.1074 8.80223 33.209C8.94604 33.3107 9.05654 33.4809 9.11212 33.6865C9.1677 33.892 9.16437 34.1181 9.10277 34.3205C9.04117 34.5229 8.92573 34.6871 8.77903 34.781C8.63233 34.8749 8.46491 34.8917 8.30951 34.8281C8.1541 34.7645 8.02188 34.6252 7.93869 34.4373C7.85551 34.2494 7.82734 34.0265 7.8597 33.8121C7.89206 33.5978 7.98261 33.4073 8.11366 33.2781V33.2802Z" fill="#6C63FF"/>
<path d="M9.87741 36.705H10.5126C10.8603 36.705 11.1938 36.8911 11.4397 37.2223C11.6856 37.5535 11.8237 38.0027 11.8237 38.4711V40.7932C11.8237 40.8726 11.8003 40.9488 11.7586 41.005C11.7169 41.0611 11.6603 41.0927 11.6014 41.0927H8.7886C8.72962 41.0927 8.67306 41.0611 8.63136 41.005C8.58965 40.9488 8.56622 40.8726 8.56622 40.7932V38.4711C8.56622 38.0027 8.70437 37.5535 8.95026 37.2223C9.19616 36.8911 9.52966 36.705 9.87741 36.705V36.705Z" fill="#3F3D56"/>
<g opacity="0.1">
<path opacity="0.1" d="M11.165 31.632C11.1387 31.67 11.1106 31.7059 11.0811 31.7395C11.111 31.7395 11.1404 31.7331 11.1703 31.7289C11.1713 31.6964 11.1677 31.6639 11.165 31.632Z" fill="black"/>
<path opacity="0.1" d="M10.6899 31.2124C10.7554 31.2068 10.8199 31.1976 10.885 31.1849C10.9433 31.1749 11.0003 31.154 11.0544 31.1228C11.028 31.0521 10.9974 30.9843 10.9631 30.9201C10.9305 30.9468 10.8952 30.967 10.8582 30.9801C10.8068 31.0635 10.7505 31.1412 10.6899 31.2124Z" fill="black"/>
<path opacity="0.1" d="M9.0876 31.9663C9.08721 31.6984 9.14046 31.4354 9.24172 31.2049C9.34299 30.9744 9.48853 30.785 9.66302 30.6565C9.83751 30.5281 10.0345 30.4654 10.2332 30.4751C10.4319 30.4848 10.625 30.5665 10.7921 30.7116L10.8089 30.6876C10.6998 30.5569 10.5726 30.4565 10.4346 30.3923C10.2966 30.3281 10.1506 30.3013 10.0048 30.3135C9.85911 30.3256 9.71661 30.3765 9.58556 30.4632C9.4545 30.5499 9.33747 30.6706 9.24121 30.8185C9.14496 30.9664 9.07138 31.1385 9.02472 31.3248C8.97805 31.5112 8.95923 31.7081 8.96932 31.9043C8.97942 32.1005 9.01824 32.292 9.08355 32.4679C9.14886 32.6438 9.23936 32.8006 9.34984 32.9292C9.18022 32.6604 9.08725 32.319 9.0876 31.9663V31.9663Z" fill="black"/>
</g>
<g opacity="0.1">
<path opacity="0.1" d="M11.6024 33.5819C11.6675 33.5763 11.7325 33.5671 11.797 33.5544C11.8747 33.5445 11.9498 33.5107 12.0162 33.4555C12.0899 33.5285 12.1513 33.6216 12.1965 33.7287C12.2416 33.8358 12.2696 33.9546 12.2785 34.0772C12.281 34.0464 12.2823 34.0155 12.2822 33.9846C12.2826 33.8474 12.2592 33.712 12.2136 33.5892C12.1681 33.4665 12.1017 33.3599 12.0199 33.2781C11.9534 33.3331 11.8784 33.3667 11.8007 33.3763L11.7482 33.3855C11.7035 33.456 11.6547 33.5216 11.6024 33.5819V33.5819Z" fill="black"/>
<path opacity="0.1" d="M11.6287 33.2823C11.6504 33.2826 11.6721 33.2848 11.6937 33.2887C11.7278 33.2399 11.7614 33.1877 11.7954 33.1368C11.699 33.1021 11.598 33.0978 11.5001 33.1241C11.4022 33.1505 11.3102 33.2068 11.2311 33.2888C11.152 33.3707 11.0879 33.4761 11.0439 33.5968C10.9999 33.7174 10.9771 33.8501 10.9773 33.9845C10.9773 34.0142 10.9773 34.0431 10.9804 34.0721C10.9965 33.8556 11.0718 33.655 11.1916 33.509C11.3114 33.3631 11.4671 33.2823 11.6287 33.2823V33.2823Z" fill="black"/>
</g>
<g opacity="0.1">
<path opacity="0.1" d="M8.52737 33.5819C8.46234 33.5763 8.39731 33.5671 8.3328 33.5544C8.25505 33.5446 8.18002 33.5108 8.11359 33.4555C8.03995 33.5285 7.97855 33.6216 7.93338 33.7287C7.8882 33.8358 7.86026 33.9546 7.85137 34.0772C7.84882 34.0464 7.8476 34.0155 7.84769 33.9846C7.8472 33.8474 7.87068 33.712 7.91623 33.5892C7.96178 33.4665 8.02813 33.3599 8.10992 33.2781C8.17638 33.3332 8.25141 33.3668 8.32913 33.3763L8.38158 33.3855C8.42605 33.4563 8.47481 33.522 8.52737 33.5819Z" fill="black"/>
<path opacity="0.1" d="M8.50116 33.2823C8.47924 33.2827 8.45734 33.2848 8.4356 33.2887C8.40204 33.2399 8.36847 33.1877 8.33438 33.1368C8.4308 33.1021 8.53186 33.0978 8.62972 33.1241C8.72759 33.1505 8.81964 33.2068 8.89874 33.2888C8.97785 33.3707 9.04189 33.4761 9.0859 33.5968C9.12992 33.7174 9.15273 33.8501 9.15257 33.9845C9.15257 34.0142 9.15257 34.0431 9.14942 34.0721C9.13329 33.8556 9.05803 33.655 8.93824 33.509C8.81846 33.3631 8.66269 33.2823 8.50116 33.2823V33.2823Z" fill="black"/>
</g>
</g>
<defs>
<clipPath id="clip0">
<rect width="60" height="45" fill="white"/>
</clipPath>
</defs>
</svg>
